<svg xmlns="http://www.w3.org/2000/svg" viewBox="0 0 1440 320"><path fill="#0099ff" fill-opacity="1" d="M0,64L24,64C48,64,96,64,144,69.3C192,75,240,85,288,122.7C336,160,384,224,432,208C480,192,528,96,576,53.3C624,11,672,21,720,64C768,107,816,181,864,192C912,203,960,149,1008,138.7C1056,128,1104,160,1152,192C1200,224,1248,256,1296,277.3C1344,299,1392,309,1416,314.7L1440,320L1440,0L1416,0C1392,0,1344,0,1296,0C1248,0,1200,0,1152,0C1104,0,1056,0,1008,0C960,0,912,0,864,0C816,0,768,0,720,0C672,0,624,0,576,0C528,0,480,0,432,0C384,0,336,0,288,0C240,0,192,0,144,0C96,0,48,0,24,0L0,0Z"></path></svg>